<svg width="123" height="44" viewBox="0 0 123 44" fill="none" xmlns="http://www.w3.org/2000/svg">
<path d="M68.5 13.0154L61.21 34.4354H56.26L49 13.0154H53.59L57.61 25.7654C57.69 25.9854 57.8 26.3954 57.94 26.9954C58.1 27.5754 58.26 28.1954 58.42 28.8554C58.58 29.4954 58.69 30.0354 58.75 30.4754C58.81 30.0354 58.91 29.4954 59.05 28.8554C59.21 28.1954 59.37 27.5754 59.53 26.9954C59.69 26.3954 59.8 25.9854 59.86 25.7654L63.91 13.0154H68.5ZM83.8417 28.4954C83.8417 29.7554 83.5317 30.8554 82.9117 31.7954C82.2917 32.7354 81.3917 33.4654 80.2117 33.9854C79.0517 34.4854 77.6317 34.7354 75.9517 34.7354C75.2117 34.7354 74.4817 34.6854 73.7617 34.5854C73.0617 34.4854 72.3817 34.3454 71.7217 34.1654C71.0817 33.9654 70.4717 33.7254 69.8917 33.4454V29.2154C70.9117 29.6554 71.9617 30.0654 73.0417 30.4454C74.1417 30.8054 75.2317 30.9854 76.3117 30.9854C77.0517 30.9854 77.6417 30.8854 78.0817 30.6854C78.5417 30.4854 78.8717 30.2154 79.0717 29.8754C79.2917 29.5354 79.4017 29.1454 79.4017 28.7054C79.4017 28.1654 79.2117 27.7054 78.8317 27.3254C78.4717 26.9454 77.9817 26.5954 77.3617 26.2754C76.7417 25.9354 76.0317 25.5754 75.2317 25.1954C74.7317 24.9554 74.1917 24.6754 73.6117 24.3554C73.0317 24.0154 72.4717 23.6054 71.9317 23.1254C71.4117 22.6254 70.9817 22.0254 70.6417 21.3254C70.3017 20.6254 70.1317 19.7854 70.1317 18.8054C70.1317 17.5254 70.4217 16.4354 71.0017 15.5354C71.6017 14.6154 72.4417 13.9154 73.5217 13.4354C74.6217 12.9554 75.9117 12.7154 77.3917 12.7154C78.5117 12.7154 79.5717 12.8454 80.5717 13.1054C81.5917 13.3654 82.6517 13.7354 83.7517 14.2154L82.2817 17.7554C81.3017 17.3554 80.4217 17.0454 79.6417 16.8254C78.8617 16.6054 78.0617 16.4954 77.2417 16.4954C76.6817 16.4954 76.2017 16.5854 75.8017 16.7654C75.4017 16.9454 75.0917 17.1954 74.8717 17.5154C74.6717 17.8354 74.5717 18.2154 74.5717 18.6554C74.5717 19.1554 74.7217 19.5854 75.0217 19.9454C75.3217 20.2854 75.7717 20.6154 76.3717 20.9354C76.9717 21.2554 77.7217 21.6354 78.6217 22.0754C79.7217 22.5954 80.6517 23.1354 81.4117 23.6954C82.1917 24.2554 82.7917 24.9154 83.2117 25.6754C83.6317 26.4354 83.8417 27.3754 83.8417 28.4954Z" fill="#7653FC"/>
<path d="M92.352 32.8354C92.72 32.8354 93.056 32.8114 93.36 32.7634C93.68 32.7154 93.968 32.6434 94.224 32.5474V33.3394C93.968 33.4354 93.68 33.5154 93.36 33.5794C93.04 33.6434 92.68 33.6754 92.28 33.6754C91.176 33.6754 90.384 33.3634 89.904 32.7394C89.424 32.1154 89.184 31.2034 89.184 30.0034V21.5314H87.264V20.9074L89.184 20.6914L89.472 17.6194H90.12V20.7154H94.152V21.5314H90.12V29.9314C90.12 30.8754 90.28 31.5954 90.6 32.0914C90.936 32.5874 91.52 32.8354 92.352 32.8354ZM107.403 27.0754C107.403 28.3554 107.195 29.4914 106.779 30.4834C106.379 31.4754 105.763 32.2594 104.931 32.8354C104.099 33.3954 103.059 33.6754 101.811 33.6754C100.611 33.6754 99.595 33.3954 98.763 32.8354C97.947 32.2754 97.323 31.4994 96.891 30.5074C96.475 29.5154 96.267 28.3714 96.267 27.0754C96.267 25.0434 96.763 23.4354 97.755 22.2514C98.763 21.0674 100.155 20.4754 101.931 20.4754C103.195 20.4754 104.227 20.7634 105.027 21.3394C105.827 21.9154 106.419 22.6994 106.803 23.6914C107.203 24.6834 107.403 25.8114 107.403 27.0754ZM97.227 27.0754C97.227 28.7874 97.603 30.1794 98.355 31.2514C99.107 32.3074 100.259 32.8354 101.811 32.8354C102.883 32.8354 103.763 32.5954 104.451 32.1154C105.139 31.6194 105.643 30.9394 105.963 30.0754C106.283 29.2114 106.443 28.2114 106.443 27.0754C106.443 25.9874 106.291 25.0114 105.987 24.1474C105.683 23.2834 105.195 22.5954 104.523 22.0834C103.867 21.5714 103.003 21.3154 101.931 21.3154C100.411 21.3154 99.243 21.8274 98.427 22.8514C97.627 23.8594 97.227 25.2674 97.227 27.0754ZM116.452 20.4754C118.116 20.4754 119.388 21.0274 120.268 22.1314C121.164 23.2354 121.612 24.8514 121.612 26.9794C121.612 29.1234 121.14 30.7794 120.196 31.9474C119.252 33.0994 117.94 33.6754 116.26 33.6754C115.06 33.6754 114.1 33.4034 113.38 32.8594C112.676 32.3154 112.18 31.6594 111.892 30.8914H111.844C111.86 31.3714 111.868 31.8674 111.868 32.3794C111.884 32.8754 111.892 33.3554 111.892 33.8194V39.0514H110.98V20.7154H111.748L111.844 23.4994H111.892C112.084 22.9714 112.38 22.4834 112.78 22.0354C113.18 21.5714 113.684 21.1954 114.292 20.9074C114.9 20.6194 115.62 20.4754 116.452 20.4754ZM116.38 21.3154C114.892 21.3154 113.772 21.8114 113.02 22.8034C112.284 23.7794 111.908 25.1714 111.892 26.9794V27.1234C111.892 29.0594 112.268 30.4994 113.02 31.4434C113.772 32.3714 114.836 32.8354 116.212 32.8354C117.62 32.8354 118.708 32.3314 119.476 31.3234C120.26 30.3154 120.652 28.8674 120.652 26.9794C120.652 23.2034 119.228 21.3154 116.38 21.3154Z" fill="#7653FC"/>
<path d="M41 1.74391C41 1.0926 40.4622 0.564575 39.7988 0.564575C39.1355 0.564575 38.5977 1.0926 38.5977 1.74391C38.5977 3.02254 37.4609 4.10266 36.1152 4.10266H30.6968C27.6077 2.55891 24.0892 1.74399 20.5 1.74399C16.9108 1.74399 13.3923 2.55891 10.3032 4.10266H4.89942C3.54586 4.10274 2.40234 3.02254 2.40234 1.74391C2.40234 1.0926 1.86454 0.564575 1.20117 0.564575C0.537805 0.564575 0 1.0926 0 1.74391V5.28199C0 7.46997 0.88198 9.53176 2.48386 11.0935C0.856035 13.7063 0 16.569 0 19.4341C0 29.1884 9.19625 37.1241 20.5 37.1241C31.8037 37.1241 41 29.1884 41 19.4341C41 16.5734 40.1464 13.7145 38.523 11.1048C40.0529 9.61086 41 7.55205 41 5.28207V1.74391ZM20.5001 4.10274C22.4136 4.10274 24.3025 4.36093 26.0992 4.86026C24.7576 5.38813 23.5262 6.18253 22.474 7.21712C21.6723 8.00547 21.0131 8.89594 20.5074 9.85812C20.0017 8.89594 19.3425 8.00547 18.5407 7.21712C17.487 6.18096 16.2535 5.38577 14.9094 4.8579C16.7036 4.36015 18.5895 4.10274 20.5001 4.10274ZM20.5 23.682C20.9492 24.4139 21.5108 25.072 22.1611 25.6335L20.5 28.7097L18.8389 25.6335C19.4892 25.072 20.0508 24.4139 20.5 23.682ZM13.293 25.3308C9.98134 25.3308 7.28711 22.6855 7.28711 19.4341C7.28711 16.1827 9.98134 13.5374 13.293 13.5374C16.6046 13.5374 19.2988 16.1827 19.2988 19.4341C19.2988 22.6855 16.6046 25.3308 13.293 25.3308ZM21.7012 19.4341C21.7012 19.3403 21.704 19.2471 21.7084 19.1543C21.7167 19.098 21.7225 19.0407 21.7223 18.9821V18.9596C21.9695 15.9294 24.5582 13.5374 27.707 13.5374C31.0187 13.5374 33.7129 16.1827 33.7129 19.4341C33.7129 22.6855 31.0187 25.3308 27.707 25.3308C24.3954 25.3308 21.7012 22.6855 21.7012 19.4341ZM2.42621 5.80593C3.17278 6.23332 4.0212 6.4614 4.89942 6.4614H10.5791H10.585H10.8906C13.139 6.4614 15.2521 7.32169 16.8407 8.88376C18.1513 10.1725 18.9743 11.8112 19.2204 13.5847C17.8662 12.2618 16.0568 11.3883 14.0459 11.2122C13.956 11.1911 13.8626 11.1787 13.7661 11.1787H8.50286C7.1907 11.1787 5.97455 10.7755 4.97846 10.0916C4.91423 10.0187 4.84104 9.95168 4.7568 9.89421C4.70067 9.85592 4.64205 9.82424 4.58223 9.79648C3.3801 8.81952 2.57227 7.40322 2.42621 5.80593ZM38.5977 19.4341C38.5977 27.8878 30.4791 34.7654 20.5 34.7654C10.5209 34.7654 2.40234 27.8878 2.40234 19.4341C2.40234 17.0745 3.09582 14.7032 4.41687 12.5137C5.36259 13.0225 6.39808 13.3501 7.47769 13.4773C5.88062 14.9808 4.88477 17.0953 4.88477 19.4341C4.88477 23.9861 8.65668 27.6894 13.293 27.6894C14.5513 27.6894 15.7457 27.4161 16.8185 26.9277L19.4387 31.7799C19.6471 32.1656 20.0553 32.4068 20.5 32.4068C20.9447 32.4068 21.3529 32.1656 21.5613 31.7799L24.1815 26.9277C25.2543 27.4161 26.4488 27.6894 27.707 27.6894C32.3433 27.6894 36.1152 23.9861 36.1152 19.4341C36.1152 17.096 35.1199 14.982 33.5237 13.4785C34.6228 13.3509 35.6581 13.0185 36.5878 12.5214C37.9058 14.7088 38.5977 17.0775 38.5977 19.4341ZM36.3987 9.81543C36.3475 9.84051 36.2972 9.86811 36.2489 9.90105C36.1712 9.95404 36.1028 10.0151 36.042 10.0813C35.0456 10.7713 33.8271 11.1787 32.5117 11.1787H27.2484C27.1547 11.1787 27.0639 11.1902 26.9764 11.2102C24.9648 11.381 23.1538 12.2499 21.7964 13.5685C22.0453 11.8012 22.8673 10.1685 24.1739 8.88368C25.7625 7.32161 27.8756 6.46133 30.1239 6.46133H30.3957C30.3984 6.46133 30.401 6.46156 30.4037 6.46156C30.406 6.46156 30.4083 6.46133 30.4106 6.46133H36.1152C36.9885 6.46133 37.8315 6.23544 38.5732 5.81222C38.425 7.41753 37.6096 8.83918 36.3987 9.81543Z" fill="#7653FC"/>
<path d="M13.5 16.6835L14.5103 19.2744H17.7798L15.1347 20.8758L16.145 23.4667L13.5 21.8654L10.855 23.4667L11.8653 20.8758L9.22025 19.2744H12.4897L13.5 16.6835Z" fill="#7653FC"/>
<path d="M27.5 16.6835L28.5103 19.2744H31.7798L29.1347 20.8758L30.145 23.4667L27.5 21.8654L24.855 23.4667L25.8653 20.8758L23.2202 19.2744H26.4897L27.5 16.6835Z" fill="#7653FC"/>
</svg>
